<svg width="50" height="38" viewBox="0 0 50 38" fill="none" xmlns="http://www.w3.org/2000/svg">
<path d="M1.94833 0.000234389C1.69378 -0.00415786 1.44105 0.0532195 1.20483 0.169032C0.968614 0.284844 0.753617 0.45678 0.572335 0.674851C0.391054 0.892921 0.247103 1.15278 0.14885 1.43931C0.0505968 1.72585 0 2.03335 0 2.34396C0 2.65456 0.0505968 2.96206 0.14885 3.2486C0.247103 3.53514 0.391054 3.79499 0.572335 4.01306C0.753617 4.23113 0.968614 4.40307 1.20483 4.51888C1.44105 4.63469 1.69378 4.69207 1.94833 4.68768H48.0517C48.3062 4.69207 48.5589 4.63469 48.7952 4.51888C49.0314 4.40307 49.2464 4.23113 49.4277 4.01306C49.6089 3.79499 49.7529 3.53514 49.8512 3.2486C49.9494 2.96206 50 2.65456 50 2.34396C50 2.03335 49.9494 1.72585 49.8512 1.43931C49.7529 1.15278 49.6089 0.892921 49.4277 0.674851C49.2464 0.45678 49.0314 0.284844 48.7952 0.169032C48.5589 0.0532195 48.3062 -0.00415786 48.0517 0.000234389H1.94833ZM1.94833 16.4063C1.69378 16.4019 1.44105 16.4593 1.20483 16.5751C0.968614 16.6909 0.753617 16.8628 0.572335 17.0809C0.391054 17.299 0.247103 17.5588 0.14885 17.8454C0.0505968 18.1319 0 18.4394 0 18.75C0 19.0606 0.0505968 19.3681 0.14885 19.6546C0.247103 19.9412 0.391054 20.201 0.572335 20.4191C0.753617 20.6372 0.968614 20.8091 1.20483 20.9249C1.44105 21.0407 1.69378 21.0981 1.94833 21.0937H48.0517C48.3062 21.0981 48.5589 21.0407 48.7952 20.9249C49.0314 20.8091 49.2464 20.6372 49.4277 20.4191C49.6089 20.201 49.7529 19.9412 49.8512 19.6546C49.9494 19.3681 50 19.0606 50 18.75C50 18.4394 49.9494 18.1319 49.8512 17.8454C49.7529 17.5588 49.6089 17.299 49.4277 17.0809C49.2464 16.8628 49.0314 16.6909 48.7952 16.5751C48.5589 16.4593 48.3062 16.4019 48.0517 16.4063H1.94833ZM1.94833 32.8123C1.69378 32.8079 1.44105 32.8653 1.20483 32.9811C0.968614 33.0969 0.753617 33.2689 0.572335 33.4869C0.391054 33.705 0.247103 33.9649 0.14885 34.2514C0.0505968 34.5379 0 34.8454 0 35.156C0 35.4666 0.0505968 35.7742 0.14885 36.0607C0.247103 36.3472 0.391054 36.6071 0.572335 36.8251C0.753617 37.0432 0.968614 37.2152 1.20483 37.331C1.44105 37.4468 1.69378 37.5042 1.94833 37.4998H48.0517C48.3062 37.5042 48.5589 37.4468 48.7952 37.331C49.0314 37.2152 49.2464 37.0432 49.4277 36.8251C49.6089 36.6071 49.7529 36.3472 49.8512 36.0607C49.9494 35.7742 50 35.4666 50 35.156C50 34.8454 49.9494 34.5379 49.8512 34.2514C49.7529 33.9649 49.6089 33.705 49.4277 33.4869C49.2464 33.2689 49.0314 33.0969 48.7952 32.9811C48.5589 32.8653 48.3062 32.8079 48.0517 32.8123H1.94833Z" fill="#808191"/>
</svg>
